HIERARCHY
ROOT Hips
{
  OFFSET 5.72205e-005 65.662 3.42586
  CHANNELS 6 Xposition Yposition Zposition Zrotation Xrotation Yrotation
  JOINT Chest
  {
    OFFSET 0 8.7983 -4.7612
    CHANNELS 6 Xposition Yposition Zposition Zrotation Xrotation Yrotation
    JOINT Chest2
    {
      OFFSET 0 8.0291 0.4195
      CHANNELS 6 Xposition Yposition Zposition Zrotation Xrotation Yrotation
      JOINT Chest3
      {
        OFFSET 0 9.9351 -2.2114
        CHANNELS 6 Xposition Yposition Zposition Zrotation Xrotation Yrotation
        JOINT Neck
        {
          OFFSET 0 22.3885 -0.4656
          CHANNELS 6 Xposition Yposition Zposition Zrotation Xrotation Yrotation
          JOINT Head
          {
            OFFSET -0.0001 12.643 3.4389
            CHANNELS 6 Xposition Yposition Zposition Zrotation Xrotation Yrotation
            End Site
            {
              OFFSET 0.0001 17.6655 0.5274
            }
          }
        }
        JOINT LeftCollar
        {
          OFFSET 2.2603 21.606 7.4023
          CHANNELS 6 Xposition Yposition Zposition Zrotation Xrotation Yrotation
          JOINT LeftShoulder
          {
            OFFSET 13.5163 -1.1332 -5.0146
            CHANNELS 6 Xposition Yposition Zposition Zrotation Xrotation Yrotation
            JOINT LeftElbow
            {
              OFFSET -0.0995 -28.05 -0.2431
              CHANNELS 6 Xposition Yposition Zposition Zrotation Xrotation Yrotation
              JOINT LeftWrist
              {
                OFFSET 0.0679 -23.3996 -0.1402
                CHANNELS 6 Xposition Yposition Zposition Zrotation Xrotation Yrotation
                JOINT LeftFinger1
                {
                  OFFSET 0.7932 -9.069 2.5189
                  CHANNELS 6 Xposition Yposition Zposition Zrotation Xrotation Yrotation
                  JOINT LeftFinger11
                  {
                    OFFSET -0.8272 -3.3923 0.5977
                    CHANNELS 6 Xposition Yposition Zposition Zrotation Xrotation Yrotation
                    JOINT LeftFinger12
                    {
                      OFFSET -0.5649 -2.3158 0.4082
                      CHANNELS 6 Xposition Yposition Zposition Zrotation Xrotation Yrotation
                      End Site
                      {
                        OFFSET -0.4919 -1.6479 0.2673
                      }
                    }
                  }
                }
                JOINT LeftFinger2
                {
                  OFFSET 0.9159 -9.2044 0.2193
                  CHANNELS 6 Xposition Yposition Zposition Zrotation Xrotation Yrotation
                  JOINT LeftFinger21
                  {
                    OFFSET 0.0117 -4.1944 -0.0248
                    CHANNELS 6 Xposition Yposition Zposition Zrotation Xrotation Yrotation
                    JOINT LeftFinger22
                    {
                      OFFSET 0.0071 -2.3249 -0.0142
                      CHANNELS 6 Xposition Yposition Zposition Zrotation Xrotation Yrotation
                      End Site
                      {
                        OFFSET -0.1475 -2.0882 0.0028
                      }
                    }
                  }
                }
                JOINT LeftFinger3
                {
                  OFFSET 0.6113 -8.7231 -2.0637
                  CHANNELS 6 Xposition Yposition Zposition Zrotation Xrotation Yrotation
                  JOINT LeftFinger31
                  {
                    OFFSET -0.1927 -3.8059 -0.2383
                    CHANNELS 6 Xposition Yposition Zposition Zrotation Xrotation Yrotation
                    JOINT LeftFinger32
                    {
                      OFFSET -0.1091 -2.1688 -0.1362
                      CHANNELS 6 Xposition Yposition Zposition Zrotation Xrotation Yrotation
                      End Site
                      {
                        OFFSET -0.2358 -1.9176 -0.0906
                      }
                    }
                  }
                }
                JOINT LeftFinger4
                {
                  OFFSET -0.6151 -8.0947 -3.5641
                  CHANNELS 6 Xposition Yposition Zposition Zrotation Xrotation Yrotation
                  JOINT LeftFinger41
                  {
                    OFFSET -0.4882 -2.341 -0.6462
                    CHANNELS 6 Xposition Yposition Zposition Zrotation Xrotation Yrotation
                    JOINT LeftFinger42
                    {
                      OFFSET -0.3575 -1.7167 -0.4742
                      CHANNELS 6 Xposition Yposition Zposition Zrotation Xrotation Yrotation
                      End Site
                      {
                        OFFSET -0.4187 -1.5237 -0.3496
                      }
                    }
                  }
                }
                JOINT LeftFinger0
                {
                  OFFSET -1.42 -1.8761 1.4223
                  CHANNELS 6 Xposition Yposition Zposition Zrotation Xrotation Yrotation
                  JOINT LeftFinger01
                  {
                    OFFSET -1.1471 -3.4929 2.6334
                    CHANNELS 6 Xposition Yposition Zposition Zrotation Xrotation Yrotation
                    JOINT LeftFinger02
                    {
                      OFFSET -0.823 -2.3 1.6571
                      CHANNELS 6 Xposition Yposition Zposition Zrotation Xrotation Yrotation
                      End Site
                      {
                        OFFSET -0.5822 -1.6914 1.1582
                      }
                    }
                  }
                }
              }
            }
          }
        }
        JOINT RightCollar
        {
          OFFSET -2.2603 21.606 7.4023
          CHANNELS 6 Xposition Yposition Zposition Zrotation Xrotation Yrotation
          JOINT RightShoulder
          {
            OFFSET -13.5187 -1.1334 -5.0155
            CHANNELS 6 Xposition Yposition Zposition Zrotation Xrotation Yrotation
            JOINT RightElbow
            {
              OFFSET 0.0994 -28.0499 -0.2431
              CHANNELS 6 Xposition Yposition Zposition Zrotation Xrotation Yrotation
              JOINT RightWrist
              {
                OFFSET -0.0679 -23.3996 -0.1402
                CHANNELS 6 Xposition Yposition Zposition Zrotation Xrotation Yrotation
                JOINT RightFinger1
                {
                  OFFSET -0.7932 -9.0691 2.5189
                  CHANNELS 6 Xposition Yposition Zposition Zrotation Xrotation Yrotation
                  JOINT RightFinger11
                  {
                    OFFSET 0.8272 -3.3923 0.5977
                    CHANNELS 6 Xposition Yposition Zposition Zrotation Xrotation Yrotation
                    JOINT RightFinger12
                    {
                      OFFSET 0.565 -2.3158 0.4082
                      CHANNELS 6 Xposition Yposition Zposition Zrotation Xrotation Yrotation
                      End Site
                      {
                        OFFSET 0.4919 -1.6479 0.2673
                      }
                    }
                  }
                }
                JOINT RightFinger2
                {
                  OFFSET -0.916 -9.2044 0.2193
                  CHANNELS 6 Xposition Yposition Zposition Zrotation Xrotation Yrotation
                  JOINT RightFinger21
                  {
                    OFFSET -0.0117 -4.1944 -0.0248
                    CHANNELS 6 Xposition Yposition Zposition Zrotation Xrotation Yrotation
                    JOINT RightFinger22
                    {
                      OFFSET -0.0071 -2.3249 -0.0142
                      CHANNELS 6 Xposition Yposition Zposition Zrotation Xrotation Yrotation
                      End Site
                      {
                        OFFSET 0.1475 -2.0882 0.0028
                      }
                    }
                  }
                }
                JOINT RightFinger3
                {
                  OFFSET -0.6113 -8.7231 -2.0637
                  CHANNELS 6 Xposition Yposition Zposition Zrotation Xrotation Yrotation
                  JOINT RightFinger31
                  {
                    OFFSET 0.1927 -3.8059 -0.2383
                    CHANNELS 6 Xposition Yposition Zposition Zrotation Xrotation Yrotation
                    JOINT RightFinger32
                    {
                      OFFSET 0.1091 -2.1688 -0.1362
                      CHANNELS 6 Xposition Yposition Zposition Zrotation Xrotation Yrotation
                      End Site
                      {
                        OFFSET 0.2358 -1.9176 -0.0906
                      }
                    }
                  }
                }
                JOINT RightFinger4
                {
                  OFFSET 0.6151 -8.0947 -3.564
                  CHANNELS 6 Xposition Yposition Zposition Zrotation Xrotation Yrotation
                  JOINT RightFinger41
                  {
                    OFFSET 0.4882 -2.341 -0.6462
                    CHANNELS 6 Xposition Yposition Zposition Zrotation Xrotation Yrotation
                    JOINT RightFinger42
                    {
                      OFFSET 0.3574 -1.7166 -0.4742
                      CHANNELS 6 Xposition Yposition Zposition Zrotation Xrotation Yrotation
                      End Site
                      {
                        OFFSET 0.4187 -1.5237 -0.3496
                      }
                    }
                  }
                }
                JOINT RightFinger0
                {
                  OFFSET 1.4199 -1.8761 1.4221
                  CHANNELS 6 Xposition Yposition Zposition Zrotation Xrotation Yrotation
                  JOINT RightFinger01
                  {
                    OFFSET 1.1472 -3.4929 2.6336
                    CHANNELS 6 Xposition Yposition Zposition Zrotation Xrotation Yrotation
                    JOINT RightFinger02
                    {
                      OFFSET 0.8229 -2.3 1.6571
                      CHANNELS 6 Xposition Yposition Zposition Zrotation Xrotation Yrotation
                      End Site
                      {
                        OFFSET 0.5822 -1.6914 1.1582
                      }
                    }
                  }
                }
              }
            }
          }
        }
      }
    }
  }
  JOINT RightHip
  {
    OFFSET -9.412 3.9771 -0.7758
    CHANNELS 6 Xposition Yposition Zposition Zrotation Xrotation Yrotation
    JOINT RightKnee
    {
      OFFSET -0.7531 -40.938 0
      CHANNELS 6 Xposition Yposition Zposition Zrotation Xrotation Yrotation
      JOINT RightAnkle
      {
        OFFSET 0 -40.1986 0
        CHANNELS 6 Xposition Yposition Zposition Zrotation Xrotation Yrotation
        JOINT RightToe
        {
          OFFSET 0 -4.4182 9.239
          CHANNELS 6 Xposition Yposition Zposition Zrotation Xrotation Yrotation
          End Site
          {
            OFFSET 0 0 6.1981
          }
        }
      }
    }
  }
  JOINT LeftHip
  {
    OFFSET 9.4119 3.9773 -0.7758
    CHANNELS 6 Xposition Yposition Zposition Zrotation Xrotation Yrotation
    JOINT LeftKnee
    {
      OFFSET 0.7532 -40.9383 0
      CHANNELS 6 Xposition Yposition Zposition Zrotation Xrotation Yrotation
      JOINT LeftAnkle
      {
        OFFSET 0 -40.1986 0
        CHANNELS 6 Xposition Yposition Zposition Zrotation Xrotation Yrotation
        JOINT LeftToe
        {
          OFFSET 0 -4.4182 9.239
          CHANNELS 6 Xposition Yposition Zposition Zrotation Xrotation Yrotation
          End Site
          {
            OFFSET 0 0 6.1981
          }
        }
      }
    }
  }
}
MOTION
Frames:	4
Frame Time:	0.0333333
-7.06029 22.2649 2.50807 0.0658831 33.0254 -178.22 -8.88178e-016 8.7983 -4.7612 -1.35576 5.90949 -1.35634 0 8.0291 0.4195 -2.59059 11.8481 -2.59181 0 9.9351 -2.2114 -2.59059 11.8481 -2.59182 4.44089e-016 22.3885 -0.4656 -15.3848 -12.6646 -13.4527 -0.0001 12.643 3.4389 -14.6707 -15.0662 -14.0376 2.2603 21.606 7.4023 -19.93 -17.2302 -26.4287 13.5163 -1.1332 -5.0146 85.9577 -14.2826 33.1742 -0.0995 -28.05 -0.2431 -58.6247 -44.0975 -28.8721 0.0679 -23.3996 -0.1402 -48.0709 22.4977 28.9776 0.7932 -9.069 2.5189 9.54166e-015 -8.74653e-015 1.59028e-015 -0.8272 -3.3923 0.5977 9.54166e-015 -6.36111e-015 2.38542e-015 -0.5649 -2.3158 0.4082 -4.13463e-006 7.23255e-006 -7.1139e-006 0.9159 -9.2044 0.2193 9.54166e-015 -8.74653e-015 1.59028e-015 0.0117 -4.1944 -0.0248 -0.0128244 0.0023266 8.18418e-005 0.0071 -2.3249 -0.0142 9.54166e-015 -6.36111e-015 3.18055e-015 0.6113 -8.7231 -2.0637 9.54166e-015 -8.74653e-015 1.59028e-015 -0.1927 -3.8059 -0.2383 -0.0160458 0.00299338 0.000859379 -0.1091 -2.1688 -0.1362 1.35436e-006 -9.25685e-007 2.02416e-006 -0.6151 -8.0947 -3.5641 9.54166e-015 -8.74653e-015 1.59028e-015 -0.4882 -2.341 -0.6462 -0.0126211 0.00312916 0.00282624 -0.3575 -1.7167 -0.4742 5.73806e-006 4.3627e-006 5.17225e-006 -1.42 -1.8761 1.4223 9.54166e-015 -8.74653e-015 1.59028e-015 -1.1471 -3.4929 2.6334 9.54166e-015 -6.36111e-015 2.38542e-015 -0.823 -2.3 1.6571 -4.13463e-006 7.23255e-006 -7.1139e-006 -2.2603 21.606 7.4023 12.0892 -22.3645 14.4632 -13.5187 -1.1334 -5.0155 -86.0229 -35.6766 -30.3837 0.0994 -28.0499 -0.2431 78.3919 -55.3513 49.9395 -0.0679 -23.3996 -0.1402 24.1519 -1.92127 -36.3527 -0.7932 -9.06911 2.5189 -4.79183e-006 9.46786e-006 -2.68442e-006 0.8272 -3.3923 0.5977 -2.5297e-006 4.8494e-007 -1.34763e-006 0.565 -2.3158 0.4082 2.5297e-006 -1.80853e-007 1.34763e-006 -0.916 -9.20441 0.2193 -4.79183e-006 9.46786e-006 -2.68442e-006 -0.0117 -4.1944 -0.0248 0.0129699 0.00231892 -9.51171e-005 -0.0071 -2.3249 -0.0142 -2.35846e-006 -5.95253e-006 7.01572e-006 -0.6113 -8.72311 -2.0637 -4.79183e-006 9.46786e-006 -2.68442e-006 0.1927 -3.8059 -0.2383 0.0162658 0.00302666 -0.000879676 0.1091 -2.1688 -0.1362 -3.53113e-031 -6.36111e-015 -3.18055e-015 0.6151 -8.09471 -3.564 -4.79183e-006 9.46786e-006 -2.68442e-006 0.4882 -2.341 -0.6462 0.0146617 0.0036909 -0.00327732 0.3574 -1.7166 -0.4742 -3.18055e-015 -6.36111e-015 -9.54166e-015 1.4199 -1.8761 1.4221 -4.79183e-006 9.46786e-006 -2.68442e-006 1.1472 -3.4929 2.6336 -2.5297e-006 4.8494e-007 -1.34763e-006 0.8229 -2.3 1.6571 2.5297e-006 -1.80853e-007 1.34763e-006 -9.412 3.9771 -0.7758 -17.2831 34.2916 10.0042 -0.7531 -40.938 0 160.254 79.9805 -117.685 0 -40.1986 1.77636e-015 2.02981 41.4884 -40.8841 3.55271e-015 -4.4182 9.239 -3.12781e-007 -6.17546e-008 2.90445e-007 9.4119 3.9773 -0.7758 110.962 -46.0942 79.0415 0.7532 -40.9383 1.77636e-015 176.515 59.2384 137.703 -1.42109e-014 -40.1986 -3.55271e-015 5.20086 33.413 32.286 3.55271e-015 -4.4182 9.239 1.91162e-006 1.37709e-006 -7.19709e-006 
-7.06015 22.29 2.49811 0.0652301 32.5493 -178.221 -8.88178e-016 8.7983 -4.7612 -1.37283 5.661 -1.35219 0 8.0291 0.4195 -2.62978 11.3515 -2.58611 0 9.9351 -2.2114 -2.62979 11.3515 -2.58612 4.44089e-016 22.3885 -0.4656 -15.3876 -12.7107 -13.4657 -0.0001 12.643 3.4389 -14.7155 -15.2463 -13.93 2.2603 21.606 7.4023 -20.1942 -16.688 -25.9137 13.5163 -1.1332 -5.0146 85.9577 -14.2826 33.1742 -0.0995 -28.05 -0.2431 -59.7266 -44.3857 -29.6729 0.0679 -23.3996 -0.1402 -47.9903 23.124 29.2146 0.7932 -9.06901 2.5189 -1.21541e-006 6.81105e-006 1.19673e-006 -0.827199 -3.3923 0.5977 1.59872e-006 -7.10232e-007 -1.94277e-006 -0.5649 -2.3158 0.4082 -6.62086e-032 4.77083e-015 7.95139e-016 0.915899 -9.20441 0.2193 -1.21541e-006 6.81105e-006 1.19673e-006 0.0117 -4.1944 -0.0248 -0.0128245 0.00231082 8.2563e-005 0.0071 -2.3249 -0.0142 6.36111e-015 1.59028e-015 -3.97569e-015 0.6113 -8.7231 -2.0637 -1.21541e-006 6.81105e-006 1.19673e-006 -0.1927 -3.8059 -0.2383 -0.0159976 0.00298926 0.000846811 -0.1091 -2.1688 -0.1362 9.54166e-015 -2.38542e-015 -2.38542e-015 -0.6151 -8.0947 -3.5641 -1.21541e-006 6.81105e-006 1.19673e-006 -0.4882 -2.341 -0.6462 -0.0125653 0.00312023 0.00282482 -0.3575 -1.7167 -0.4742 -1.27222e-014 3.97569e-015 -1.59028e-015 -1.42 -1.8761 1.4223 -1.21541e-006 6.81105e-006 1.19673e-006 -1.1471 -3.4929 2.6334 1.59872e-006 -7.10232e-007 -1.94277e-006 -0.823 -2.3 1.6571 -6.62086e-032 4.77083e-015 7.95139e-016 -2.2603 21.606 7.4023 12.2824 -21.5938 14.1246 -13.5187 -1.1334 -5.0155 -86.023 -35.6766 -30.3838 0.0994 -28.0499 -0.2431 78.9687 -55.3817 50.4257 -0.0679 -23.3996 -0.1402 24.1698 -1.73415 -36.2369 -0.7932 -9.06911 2.5189 -2.97355e-008 2.92687e-006 2.78294e-006 0.8272 -3.3923 0.5977 -3.18055e-015 6.36111e-015 6.36111e-015 0.565 -2.3158 0.4082 -7.08849e-006 -5.77515e-006 -1.23135e-006 -0.916 -9.20441 0.2193 -2.97355e-008 2.92687e-006 2.78294e-006 -0.0117 -4.1944 -0.0248 0.0129188 0.00231033 -9.79987e-005 -0.0071 -2.3249 -0.0142 2.76533e-006 -1.2544e-006 4.14537e-006 -0.6113 -8.72311 -2.0637 -2.97355e-008 2.92687e-006 2.78294e-006 0.1927 -3.8059 -0.2383 0.0162297 0.00300954 -0.000864682 0.1091 -2.1688 -0.1362 6.36111e-015 -6.36111e-015 3.18055e-015 0.6151 -8.09471 -3.564 -2.97355e-008 2.92687e-006 2.78294e-006 0.4882 -2.341 -0.6462 0.0145665 0.00367805 -0.00326324 0.3574 -1.7166 -0.4742 2.2636e-006 1.25175e-006 1.33363e-006 1.4199 -1.8761 1.4221 -2.97355e-008 2.92687e-006 2.78294e-006 1.1472 -3.4929 2.6336 -3.18055e-015 6.36111e-015 6.36111e-015 0.8229 -2.3 1.6571 -7.08849e-006 -5.77515e-006 -1.23135e-006 -9.412 3.9771 -0.7758 -17.1545 33.8911 9.84961 -0.7531 -40.938 0 160.253 79.9807 -117.686 -3.55271e-015 -40.1986 0 2.02883 41.4884 -40.8844 3.55271e-015 -4.4182 9.239 7.81924e-007 3.74956e-006 1.45858e-006 9.4119 3.9773 -0.7758 111.116 -46.2036 79.2011 0.7532 -40.9383 1.77636e-015 176.492 59.3975 137.687 0 -40.1986 -3.55271e-015 5.8344 32.3791 31.7863 7.10543e-015 -4.4182 9.239 -1.61373e-023 2.90703e-007 3.18055e-015 
-7.06001 22.3155 2.4886 0.0645664 32.0734 -178.223 -8.88178e-016 8.7983 -4.7612 -1.38975 5.4126 -1.34803 1.77636e-015 8.0291 0.4195 -2.66861 10.8551 -2.58061 0 9.9351 -2.2114 -2.66862 10.8551 -2.58061 -4.44089e-016 22.3885 -0.4656 -15.3905 -12.7567 -13.4787 -0.0001 12.643 3.4389 -14.7599 -15.4266 -13.8224 2.2603 21.606 7.4023 -20.4626 -16.1481 -25.3977 13.5163 -1.1332 -5.0146 85.9577 -14.2826 33.1742 -0.0994999 -28.05 -0.2431 -60.8392 -44.6626 -30.4853 0.0679 -23.3996 -0.1402 -47.9121 23.7504 29.4518 0.793199 -9.06901 2.5189 1.27222e-014 -6.36111e-015 3.18055e-015 -0.827199 -3.3923 0.5977 3.18055e-015 5.56597e-015 2.38542e-015 -0.5649 -2.3158 0.4082 6.36111e-015 6.36111e-015 7.95139e-016 0.915899 -9.20441 0.2193 1.27222e-014 -6.36111e-015 3.18055e-015 0.0117 -4.1944 -0.0248 -0.012858 0.00232913 8.05415e-005 0.0071 -2.3249 -0.0142 3.18055e-015 -7.95139e-016 3.18055e-015 0.6113 -8.72311 -2.0637 1.27222e-014 -6.36111e-015 3.18055e-015 -0.1927 -3.8059 -0.2383 -0.0159929 0.00298944 0.000856123 -0.1091 -2.1688 -0.1362 -9.54166e-015 -3.97569e-015 -0 -0.6151 -8.09471 -3.5641 1.27222e-014 -6.36111e-015 3.18055e-015 -0.4882 -2.341 -0.646199 -0.0126406 0.0031391 0.00283364 -0.3575 -1.7167 -0.4742 3.18055e-015 -1.59028e-015 -3.97569e-015 -1.42 -1.8761 1.4223 1.27222e-014 -6.36111e-015 3.18055e-015 -1.1471 -3.4929 2.6334 3.18055e-015 5.56597e-015 2.38542e-015 -0.822999 -2.3 1.6571 6.36111e-015 6.36111e-015 7.95139e-016 -2.2603 21.606 7.4023 12.4794 -20.8242 13.785 -13.5187 -1.1334 -5.0155 -86.0229 -35.6766 -30.3838 0.0994 -28.0499 -0.2431 79.5464 -55.4092 50.9128 -0.0679 -23.3996 -0.1402 24.1873 -1.54701 -36.1212 -0.793199 -9.06911 2.5189 3.18055e-015 0 3.18055e-015 0.827199 -3.3923 0.5977 -0 -6.36111e-015 -0 0.565 -2.3158 0.4082 -6.36111e-015 -3.18055e-015 6.36111e-015 -0.915999 -9.20441 0.2193 3.18055e-015 0 3.18055e-015 -0.0117 -4.1944 -0.0248 0.0129744 0.00231549 -8.18589e-005 -0.0071 -2.3249 -0.0142 -3.18055e-015 3.18055e-015 9.54166e-015 -0.6113 -8.72311 -2.0637 3.18055e-015 0 3.18055e-015 0.1927 -3.8059 -0.2383 0.0163325 0.00302699 -0.000867951 0.1091 -2.1688 -0.1362 2.76501e-006 -4.35804e-006 4.1476e-006 0.6151 -8.09471 -3.564 3.18055e-015 0 3.18055e-015 0.4882 -2.341 -0.6462 0.014651 0.00369733 -0.00327787 0.3574 -1.7166 -0.4742 -0 -3.18055e-015 -0 1.4199 -1.8761 1.4221 3.18055e-015 0 3.18055e-015 1.1472 -3.4929 2.6336 -0 -6.36111e-015 -0 0.822899 -2.3 1.6571 -6.36111e-015 -3.18055e-015 6.36111e-015 -9.412 3.9771 -0.7758 -17.0279 33.4904 9.6968 -0.7531 -40.938 0 160.253 79.9809 -117.687 -3.55271e-015 -40.1986 -8.88178e-016 2.0279 41.4884 -40.8847 3.55271e-015 -4.4182 9.239 -9.39467e-007 -4.25822e-006 8.70184e-007 9.4119 3.9773 -0.7758 111.274 -46.3143 79.3652 0.7532 -40.9383 -5.32907e-015 176.468 59.556 137.672 0 -40.1986 0 6.44808 31.3428 31.3071 0 -4.4182 9.239 1.70758e-006 -9.69761e-007 -2.16993e-006 
-7.05986 22.3412 2.47954 0.0638955 31.5975 -178.224 8.88178e-016 8.7983 -4.7612 -1.40649 5.16439 -1.34386 8.88178e-016 8.0291 0.4195 -2.70711 10.3591 -2.57532 0 9.9351 -2.2114 -2.70712 10.3591 -2.57533 4.44089e-016 22.3885 -0.4656 -15.3934 -12.8029 -13.4917 -0.0001 12.643 3.4389 -14.8041 -15.6071 -13.7149 2.2603 21.606 7.4023 -20.7353 -15.6109 -24.8806 13.5163 -1.1332 -5.0146 85.9577 -14.2826 33.1742 -0.0995 -28.05 -0.2431 -61.962 -44.9282 -31.3085 0.0679 -23.3996 -0.1402 -47.8364 24.3771 29.6891 0.7932 -9.06901 2.5189 6.36111e-015 -2.38542e-015 -3.97569e-015 -0.8272 -3.3923 0.5977 -6.12358e-006 -5.30306e-006 -4.41893e-006 -0.5649 -2.3158 0.4082 -3.18055e-015 -3.18055e-015 1.59028e-015 0.9159 -9.20441 0.2193 6.36111e-015 -2.38542e-015 -3.97569e-015 0.0117 -4.1944 -0.0248 -0.0128373 0.0023112 7.99487e-005 0.0071 -2.3249 -0.0142 -7.64999e-007 1.03943e-005 1.4927e-006 0.6113 -8.7231 -2.0637 6.36111e-015 -2.38542e-015 -3.97569e-015 -0.1927 -3.8059 -0.2383 -0.0160544 0.00300693 0.000861582 -0.1091 -2.1688 -0.1362 -1.42384e-006 -1.53888e-006 -3.06411e-006 -0.6151 -8.0947 -3.5641 6.36111e-015 -2.38542e-015 -3.97569e-015 -0.4882 -2.341 -0.6462 -0.0125782 0.00311943 0.00283251 -0.3575 -1.7167 -0.4742 -1.80623e-006 -2.00002e-006 -2.3177e-006 -1.42 -1.8761 1.4223 6.36111e-015 -2.38542e-015 -3.97569e-015 -1.1471 -3.4929 2.6334 -6.12358e-006 -5.30306e-006 -4.41893e-006 -0.823 -2.3 1.6571 -3.18055e-015 -3.18055e-015 1.59028e-015 -2.2603 21.606 7.4023 12.6802 -20.0562 13.4446 -13.5187 -1.1334 -5.0155 -86.0229 -35.6766 -30.3838 0.0993999 -28.0499 -0.2431 80.1248 -55.434 51.4006 -0.0679 -23.3996 -0.1402 24.2044 -1.35985 -36.0055 -0.7932 -9.06911 2.5189 -3.18055e-015 -3.07944e-007 -3.18055e-015 0.8272 -3.3923 0.5977 1.76556e-031 3.18055e-015 -3.18055e-015 0.565 -2.3158 0.4082 -7.35299e-006 -4.83209e-006 -1.24014e-006 -0.916 -9.20441 0.2193 -3.18055e-015 -3.07944e-007 -3.18055e-015 -0.0117 -4.1944 -0.0248 0.012909 0.00231132 -8.0838e-005 -0.0071 -2.3249 -0.0142 7.30204e-006 -6.66859e-006 6.80147e-006 -0.6113 -8.72311 -2.0637 -3.18055e-015 -3.07944e-007 -3.18055e-015 0.1927 -3.8059 -0.2383 0.0162617 0.0030297 -0.000877094 0.1091 -2.1688 -0.1362 -6.36111e-015 6.36111e-015 6.36111e-015 0.6151 -8.09471 -3.564 -3.18055e-015 -3.07944e-007 -3.18055e-015 0.4882 -2.341 -0.6462 0.0145458 0.00366985 -0.00325464 0.3574 -1.7166 -0.4742 -1.27222e-014 0 -0 1.4199 -1.8761 1.4221 -3.18055e-015 -3.07944e-007 -3.18055e-015 1.1472 -3.4929 2.6336 1.76556e-031 3.18055e-015 -3.18055e-015 0.8229 -2.3 1.6571 -7.35299e-006 -4.83209e-006 -1.24014e-006 -9.412 3.9771 -0.7758 -16.9031 33.0893 9.54577 -0.7531 -40.938 -8.88178e-016 160.253 79.9809 -117.687 0 -40.1986 -8.88179e-016 2.02684 41.4884 -40.885 0 -4.4182 9.239 1.23633e-006 3.01569e-006 7.01822e-006 9.4119 3.9773 -0.7758 111.437 -46.4263 79.5339 0.7532 -40.9383 7.10543e-015 176.444 59.7138 137.658 0 -40.1986 0 7.04292 30.3047 30.8477 3.55271e-015 -4.4182 9.239 1.10158e-022 1.98443e-006 -3.18055e-015 
